<svg width="167" height="29" viewBox="0 0 167 29" fill="none" xmlns="http://www.w3.org/2000/svg">
<path d="M120.609 14.7891C120.609 11.4754 123.296 8.78906 126.609 8.78906H160.609C163.923 8.78906 166.609 11.4754 166.609 14.7891V22.7891C166.609 26.1028 163.923 28.7891 160.609 28.7891H126.609C123.296 28.7891 120.609 26.1028 120.609 22.7891V14.7891Z" fill="#FD4714"/>
<path d="M127.188 24.4766C126.656 24.4766 126.391 24.3307 126.391 24.0391V14.125C126.391 13.8333 126.656 13.6875 127.188 13.6875H132.102C132.945 13.6875 133.716 13.9479 134.414 14.4688C135.117 14.9896 135.469 15.6953 135.469 16.5859C135.469 17.4766 135.117 18.1849 134.414 18.7109C133.716 19.2318 132.945 19.4922 132.102 19.4922H127.977V24.0391C127.977 24.3307 127.714 24.4766 127.188 24.4766ZM132.102 18.6172C132.617 18.6172 133.042 18.3984 133.375 17.9609C133.714 17.5182 133.883 17.0599 133.883 16.5859C133.883 16.112 133.714 15.6562 133.375 15.2188C133.042 14.7812 132.617 14.5625 132.102 14.5625H127.977V18.6172H132.102Z" fill="white"/>
<path d="M147.404 24.4766C147.201 24.4766 147.024 24.4375 146.873 24.3594C146.279 24.0625 145.831 23.6641 145.529 23.1641C145.227 22.6641 144.956 22.151 144.717 21.625C144.54 21.2292 144.305 20.776 144.014 20.2656C143.727 19.75 143.321 19.4922 142.795 19.4922H140.147V24.0391C140.147 24.3307 139.881 24.4766 139.35 24.4766C138.824 24.4766 138.561 24.3307 138.561 24.0391V14.125C138.561 13.8333 138.824 13.6875 139.35 13.6875H144.186C145.035 13.6875 145.821 13.9453 146.545 14.4609C147.269 14.9766 147.631 15.6849 147.631 16.5859C147.631 18.1224 146.756 19.0625 145.006 19.4062C145.298 19.6771 145.537 19.9922 145.725 20.3516C145.917 20.7057 146.094 21.0599 146.256 21.4141C146.438 21.8255 146.657 22.2578 146.912 22.7109C147.167 23.1641 147.509 23.4974 147.936 23.7109C148.108 23.7995 148.193 23.9089 148.193 24.0391C148.193 24.1484 148.126 24.2448 147.99 24.3281C147.839 24.4271 147.644 24.4766 147.404 24.4766ZM144.186 18.6172C144.712 18.6172 145.152 18.401 145.506 17.9688C145.865 17.5365 146.045 17.0755 146.045 16.5859C146.045 16.0911 145.865 15.6302 145.506 15.2031C145.152 14.776 144.712 14.5625 144.186 14.5625H140.147V18.6172H144.186Z" fill="white"/>
<path d="M156.317 24.4766C154.681 24.4766 153.369 23.9583 152.379 22.9219C151.395 21.8802 150.903 20.5677 150.903 18.9844C150.903 17.3958 151.395 16.0859 152.379 15.0547C153.369 14.0182 154.681 13.5 156.317 13.5C157.952 13.5 159.262 14.0182 160.246 15.0547C161.236 16.0859 161.731 17.3958 161.731 18.9844C161.731 20.5677 161.236 21.8802 160.246 22.9219C159.262 23.9583 157.952 24.4766 156.317 24.4766ZM156.317 23.6016C157.582 23.6016 158.535 23.112 159.176 22.1328C159.822 21.1536 160.145 20.1042 160.145 18.9844C160.145 17.8646 159.822 16.8177 159.176 15.8438C158.535 14.8646 157.582 14.375 156.317 14.375C155.051 14.375 154.095 14.8646 153.449 15.8438C152.809 16.8177 152.488 17.8646 152.488 18.9844C152.488 20.1042 152.809 21.1536 153.449 22.1328C154.095 23.112 155.051 23.6016 156.317 23.6016Z" fill="white"/>
<path d="M1.21538 28.2462V13.5502H3.89938V28.2462H1.21538Z" fill="black"/>
<path d="M9.7421 28.2462V13.5502H12.6461L19.6861 24.2862V13.5502H22.3701V28.2462H19.4661L12.4261 17.5102V28.2462H9.7421Z" fill="black"/>
<path d="M32.8801 28.2462L27.0281 13.5502H29.9981L34.3541 25.2102L38.6661 13.5502H41.6581L35.8061 28.2462H32.8801Z" fill="black"/>
<path d="M51.9883 28.4662C50.4336 28.4662 49.0843 28.1435 47.9403 27.4982C46.7963 26.8382 45.909 25.9435 45.2783 24.8142C44.6623 23.6702 44.3543 22.3649 44.3543 20.8982C44.3543 19.4315 44.6623 18.1335 45.2783 17.0042C45.909 15.8602 46.7963 14.9655 47.9403 14.3202C49.0843 13.6602 50.4336 13.3302 51.9883 13.3302C53.543 13.3302 54.8923 13.6602 56.0363 14.3202C57.1803 14.9655 58.0603 15.8602 58.6763 17.0042C59.307 18.1335 59.6223 19.4315 59.6223 20.8982C59.6223 22.3649 59.307 23.6702 58.6763 24.8142C58.0603 25.9435 57.1803 26.8382 56.0363 27.4982C54.8923 28.1435 53.543 28.4662 51.9883 28.4662ZM52.0103 26.1342C52.993 26.1342 53.851 25.9142 54.5843 25.4742C55.3176 25.0342 55.8823 24.4182 56.2783 23.6262C56.689 22.8342 56.8943 21.9249 56.8943 20.8982C56.8943 19.8569 56.689 18.9475 56.2783 18.1702C55.8823 17.3782 55.3176 16.7622 54.5843 16.3222C53.851 15.8822 52.9856 15.6622 51.9883 15.6622C51.0056 15.6622 50.1403 15.8822 49.3923 16.3222C48.659 16.7622 48.087 17.3782 47.6763 18.1702C47.2803 18.9475 47.0823 19.8569 47.0823 20.8982C47.0823 21.9249 47.2803 22.8342 47.6763 23.6262C48.087 24.4182 48.659 25.0342 49.3923 25.4742C50.1403 25.9142 51.013 26.1342 52.0103 26.1342Z" fill="black"/>
<path d="M64.8203 28.2462V13.5502H67.5043V28.2462H64.8203Z" fill="black"/>
<path d="M80.321 28.4662C78.7663 28.4662 77.417 28.1435 76.273 27.4982C75.129 26.8382 74.2417 25.9435 73.611 24.8142C72.995 23.6702 72.687 22.3649 72.687 20.8982C72.687 19.4315 72.995 18.1335 73.611 17.0042C74.2417 15.8602 75.129 14.9655 76.273 14.3202C77.417 13.6602 78.7663 13.3302 80.321 13.3302C81.3183 13.3302 82.2277 13.4695 83.049 13.7482C83.885 14.0122 84.6917 14.4229 85.469 14.9802L84.457 17.0042C83.797 16.5642 83.1297 16.2342 82.455 16.0142C81.7804 15.7795 81.069 15.6622 80.321 15.6622C79.3383 15.6622 78.473 15.8822 77.725 16.3222C76.9917 16.7622 76.4197 17.3782 76.009 18.1702C75.613 18.9475 75.415 19.8569 75.415 20.8982C75.415 21.9249 75.613 22.8342 76.009 23.6262C76.4197 24.4182 76.9917 25.0342 77.725 25.4742C78.473 25.9142 79.3383 26.1342 80.321 26.1342C81.069 26.1342 81.7804 26.0242 82.455 25.8042C83.1297 25.5695 83.797 25.2322 84.457 24.7922L85.469 26.8162C84.6917 27.3735 83.885 27.7915 83.049 28.0702C82.2277 28.3342 81.3183 28.4662 80.321 28.4662Z" fill="black"/>
<path d="M90.5105 28.2462V13.5502H100.938V15.8162H93.1945V19.6222H100.278V21.7342H93.1945V25.9802H100.938V28.2462H90.5105Z" fill="black"/>
<path d="M106.299 28.2462V13.5502H116.727V15.8162H108.983V19.6222H116.067V21.7342H108.983V25.9802H116.727V28.2462H106.299Z" fill="black"/>
<path d="M5.41406 10.9766C3.77865 10.9766 2.46615 10.4583 1.47656 9.42188C0.492188 8.38021 0 7.06771 0 5.48438C0 3.89583 0.492188 2.58594 1.47656 1.55469C2.46615 0.518229 3.77865 0 5.41406 0C7.04948 0 8.35938 0.518229 9.34375 1.55469C10.3333 2.58594 10.8281 3.89583 10.8281 5.48438C10.8281 7.06771 10.3333 8.38021 9.34375 9.42188C8.35938 10.4583 7.04948 10.9766 5.41406 10.9766ZM5.41406 10.1016C6.67969 10.1016 7.63281 9.61198 8.27344 8.63281C8.91927 7.65365 9.24219 6.60417 9.24219 5.48438C9.24219 4.36458 8.91927 3.31771 8.27344 2.34375C7.63281 1.36458 6.67969 0.875 5.41406 0.875C4.14844 0.875 3.19271 1.36458 2.54688 2.34375C1.90625 3.31771 1.58594 4.36458 1.58594 5.48438C1.58594 6.60417 1.90625 7.65365 2.54688 8.63281C3.19271 9.61198 4.14844 10.1016 5.41406 10.1016Z" fill="black"/>
<path d="M14.7169 10.9766C14.1856 10.9766 13.92 10.8307 13.92 10.5391V0.625C13.92 0.333333 14.1856 0.1875 14.7169 0.1875H19.6309C20.4747 0.1875 21.2455 0.447917 21.9434 0.96875C22.6466 1.48958 22.9981 2.19531 22.9981 3.08594C22.9981 3.97656 22.6466 4.6849 21.9434 5.21094C21.2455 5.73177 20.4747 5.99219 19.6309 5.99219H15.5059V10.5391C15.5059 10.8307 15.2429 10.9766 14.7169 10.9766ZM19.6309 5.11719C20.1466 5.11719 20.571 4.89844 20.9044 4.46094C21.2429 4.01823 21.4122 3.5599 21.4122 3.08594C21.4122 2.61198 21.2429 2.15625 20.9044 1.71875C20.571 1.28125 20.1466 1.0625 19.6309 1.0625H15.5059V5.11719H19.6309Z" fill="black"/>
<path d="M33.9572 10.7891H26.9416C26.3739 10.7891 26.09 10.6328 26.09 10.3203V0.65625C26.09 0.34375 26.3739 0.1875 26.9416 0.1875H33.9572C34.4884 0.1875 34.7541 0.333333 34.7541 0.625C34.7541 0.916667 34.4884 1.0625 33.9572 1.0625H27.6759V5.04688H32.965C33.491 5.04688 33.7541 5.19271 33.7541 5.48438C33.7541 5.77604 33.491 5.92188 32.965 5.92188H27.6759V9.91406H33.9572C34.4884 9.91406 34.7541 10.0599 34.7541 10.3516C34.7541 10.6432 34.4884 10.7891 33.9572 10.7891Z" fill="black"/>
<path d="M46.4631 10.9766C46.036 10.9766 45.747 10.8776 45.5959 10.6797L39.2756 2.17969V10.6484C39.2756 10.8672 39.0699 10.9766 38.6584 10.9766C38.247 10.9766 38.0412 10.8672 38.0412 10.6484V0.515625C38.0412 0.171875 38.3537 0 38.9787 0C39.4006 0 39.6871 0.0989583 39.8381 0.296875L46.1662 8.79688V0.335938C46.1662 0.111979 46.372 0 46.7834 0C47.1949 0 47.4006 0.111979 47.4006 0.335938V10.4766C47.4006 10.8099 47.0881 10.9766 46.4631 10.9766Z" fill="black"/>
</svg>
