<svg width="119" height="30" viewBox="0 0 119 30" fill="none" xmlns="http://www.w3.org/2000/svg">
<path d="M1.606 29.4571V14.7611H4.29V29.4571H1.606ZM10.1327 29.4571V14.7611H13.0367L20.0767 25.4971V14.7611H22.7607V29.4571H19.8567L12.8167 18.7211V29.4571H10.1327ZM33.2707 29.4571L27.4187 14.7611H30.3887L34.7447 26.4211L39.0567 14.7611H42.0487L36.1967 29.4571H33.2707ZM52.3789 29.6771C50.8242 29.6771 49.4749 29.3545 48.3309 28.7091C47.1869 28.0491 46.2996 27.1545 45.6689 26.0251C45.0529 24.8811 44.7449 23.5758 44.7449 22.1091C44.7449 20.6425 45.0529 19.3445 45.6689 18.2151C46.2996 17.0711 47.1869 16.1765 48.3309 15.5311C49.4749 14.8711 50.8242 14.5411 52.3789 14.5411C53.9336 14.5411 55.2829 14.8711 56.4269 15.5311C57.5709 16.1765 58.4509 17.0711 59.0669 18.2151C59.6976 19.3445 60.0129 20.6425 60.0129 22.1091C60.0129 23.5758 59.6976 24.8811 59.0669 26.0251C58.4509 27.1545 57.5709 28.0491 56.4269 28.7091C55.2829 29.3545 53.9336 29.6771 52.3789 29.6771ZM52.4009 27.3451C53.3836 27.3451 54.2416 27.1251 54.9749 26.6851C55.7082 26.2451 56.2729 25.6291 56.6689 24.8371C57.0796 24.0451 57.2849 23.1358 57.2849 22.1091C57.2849 21.0678 57.0796 20.1585 56.6689 19.3811C56.2729 18.5891 55.7082 17.9731 54.9749 17.5331C54.2416 17.0931 53.3762 16.8731 52.3789 16.8731C51.3962 16.8731 50.5309 17.0931 49.7829 17.5331C49.0496 17.9731 48.4776 18.5891 48.0669 19.3811C47.6709 20.1585 47.4729 21.0678 47.4729 22.1091C47.4729 23.1358 47.6709 24.0451 48.0669 24.8371C48.4776 25.6291 49.0496 26.2451 49.7829 26.6851C50.5309 27.1251 51.4036 27.3451 52.4009 27.3451ZM65.2109 29.4571V14.7611H67.8949V29.4571H65.2109ZM80.7116 29.6771C79.157 29.6771 77.8076 29.3545 76.6636 28.7091C75.5196 28.0491 74.6323 27.1545 74.0016 26.0251C73.3856 24.8811 73.0776 23.5758 73.0776 22.1091C73.0776 20.6425 73.3856 19.3445 74.0016 18.2151C74.6323 17.0711 75.5196 16.1765 76.6636 15.5311C77.8076 14.8711 79.157 14.5411 80.7116 14.5411C81.709 14.5411 82.6183 14.6805 83.4396 14.9591C84.2756 15.2231 85.0823 15.6338 85.8596 16.1911L84.8476 18.2151C84.1876 17.7751 83.5203 17.4451 82.8456 17.2251C82.171 16.9905 81.4596 16.8731 80.7116 16.8731C79.729 16.8731 78.8636 17.0931 78.1156 17.5331C77.3823 17.9731 76.8103 18.5891 76.3996 19.3811C76.0036 20.1585 75.8056 21.0678 75.8056 22.1091C75.8056 23.1358 76.0036 24.0451 76.3996 24.8371C76.8103 25.6291 77.3823 26.2451 78.1156 26.6851C78.8636 27.1251 79.729 27.3451 80.7116 27.3451C81.4596 27.3451 82.171 27.2351 82.8456 27.0151C83.5203 26.7805 84.1876 26.4431 84.8476 26.0031L85.8596 28.0271C85.0823 28.5845 84.2756 29.0025 83.4396 29.2811C82.6183 29.5451 81.709 29.6771 80.7116 29.6771ZM90.9011 29.4571V14.7611H101.329V17.0271H93.5851V20.8331H100.669V22.9451H93.5851V27.1911H101.329V29.4571H90.9011ZM106.69 29.4571V14.7611H117.118V17.0271H109.374V20.8331H116.458V22.9451H109.374V27.1911H117.118V29.4571H106.69Z" fill="black"/>
<path d="M5.80469 12.1875C4.16927 12.1875 2.85677 11.6693 1.86719 10.6328C0.882812 9.59115 0.390625 8.27865 0.390625 6.69531C0.390625 5.10677 0.882812 3.79688 1.86719 2.76562C2.85677 1.72917 4.16927 1.21094 5.80469 1.21094C7.4401 1.21094 8.75 1.72917 9.73438 2.76562C10.724 3.79688 11.2188 5.10677 11.2188 6.69531C11.2188 8.27865 10.724 9.59115 9.73438 10.6328C8.75 11.6693 7.4401 12.1875 5.80469 12.1875ZM5.80469 11.3125C7.07031 11.3125 8.02344 10.8229 8.66406 9.84375C9.3099 8.86458 9.63281 7.8151 9.63281 6.69531C9.63281 5.57552 9.3099 4.52865 8.66406 3.55469C8.02344 2.57552 7.07031 2.08594 5.80469 2.08594C4.53906 2.08594 3.58333 2.57552 2.9375 3.55469C2.29688 4.52865 1.97656 5.57552 1.97656 6.69531C1.97656 7.8151 2.29688 8.86458 2.9375 9.84375C3.58333 10.8229 4.53906 11.3125 5.80469 11.3125ZM15.1075 12.1875C14.5763 12.1875 14.3106 12.0417 14.3106 11.75V1.83594C14.3106 1.54427 14.5763 1.39844 15.1075 1.39844H20.0216C20.8653 1.39844 21.6361 1.65885 22.3341 2.17969C23.0372 2.70052 23.3888 3.40625 23.3888 4.29688C23.3888 5.1875 23.0372 5.89583 22.3341 6.42188C21.6361 6.94271 20.8653 7.20312 20.0216 7.20312H15.8966V11.75C15.8966 12.0417 15.6335 12.1875 15.1075 12.1875ZM20.0216 6.32812C20.5372 6.32812 20.9617 6.10938 21.295 5.67188C21.6335 5.22917 21.8028 4.77083 21.8028 4.29688C21.8028 3.82292 21.6335 3.36719 21.295 2.92969C20.9617 2.49219 20.5372 2.27344 20.0216 2.27344H15.8966V6.32812H20.0216ZM34.3478 12H27.3322C26.7645 12 26.4806 11.8438 26.4806 11.5312V1.86719C26.4806 1.55469 26.7645 1.39844 27.3322 1.39844H34.3478C34.8791 1.39844 35.1447 1.54427 35.1447 1.83594C35.1447 2.1276 34.8791 2.27344 34.3478 2.27344H28.0666V6.25781H33.3556C33.8817 6.25781 34.1447 6.40365 34.1447 6.69531C34.1447 6.98698 33.8817 7.13281 33.3556 7.13281H28.0666V11.125H34.3478C34.8791 11.125 35.1447 11.2708 35.1447 11.5625C35.1447 11.8542 34.8791 12 34.3478 12ZM46.8537 12.1875C46.4267 12.1875 46.1376 12.0885 45.9866 11.8906L39.6662 3.39062V11.8594C39.6662 12.0781 39.4605 12.1875 39.0491 12.1875C38.6376 12.1875 38.4319 12.0781 38.4319 11.8594V1.72656C38.4319 1.38281 38.7444 1.21094 39.3694 1.21094C39.7912 1.21094 40.0777 1.3099 40.2287 1.50781L46.5569 10.0078V1.54688C46.5569 1.32292 46.7626 1.21094 47.1741 1.21094C47.5855 1.21094 47.7912 1.32292 47.7912 1.54688V11.6875C47.7912 12.0208 47.4787 12.1875 46.8537 12.1875Z" fill="black"/>
</svg>
